<svg width="158" height="36" viewBox="0 0 158 36" fill="none" xmlns="http://www.w3.org/2000/svg">
<path d="M152.634 12.211C152.544 12.0993 152.432 11.9876 152.331 11.8758C151.988 11.4964 151.77 11.0191 151.71 10.5106C151.65 10.002 151.75 9.48732 151.996 9.03816C152.209 8.65832 152.577 8.42371 152.824 8.06621C153.013 7.79427 153.147 7.48767 153.217 7.16399C153.288 6.8403 153.293 6.5059 153.234 6.17997C153.174 5.85404 153.052 5.54301 152.872 5.26472C152.692 4.98641 152.458 4.74633 152.186 4.55822C151.761 4.25767 151.252 4.10102 150.732 4.11135C150.239 4.1021 149.755 4.2339 149.336 4.4912C148.989 4.71463 148.788 5.09448 148.441 5.31792C148.063 5.54778 147.633 5.67492 147.191 5.68667C146.751 5.69844 146.314 5.59441 145.924 5.38495C145.567 5.18386 145.31 4.85987 144.975 4.62525C144.703 4.43611 144.398 4.3025 144.074 4.23211C143.751 4.16172 143.417 4.15597 143.093 4.21517C142.767 4.27437 142.457 4.39735 142.179 4.57703C141.902 4.75672 141.662 4.98952 141.476 5.26204C140.681 6.40159 140.972 7.97683 142.113 8.77003C142.577 9.08928 143.134 9.24501 143.697 9.21263C144.26 9.18026 144.796 8.96165 145.221 8.59125C145.746 8.1332 146.16 7.73101 146.886 7.64165C147.289 7.58581 147.703 7.64165 148.094 7.77571C148.653 7.98797 149.123 8.58008 149.425 9.07167C149.816 9.69731 149.883 10.4793 149.625 11.172C149.436 11.6747 149.033 11.9317 148.731 12.345C148.72 12.3674 148.698 12.3897 148.687 12.4121C148.287 12.9574 148.118 13.6391 148.221 14.3077C148.321 14.9764 148.684 15.5775 149.229 15.9796C149.773 16.3815 150.455 16.5516 151.124 16.4526C151.793 16.3535 152.396 15.9933 152.801 15.4509C153.144 14.9715 153.314 14.3901 153.283 13.8017C153.253 13.2132 153.024 12.6525 152.634 12.211Z" fill="url(#paint0_linear_7825_162370)"/>
<path d="M155.462 4.91564C156.82 4.91564 157.921 3.81524 157.921 2.45782C157.921 1.1004 156.82 0 155.462 0C154.103 0 153.002 1.1004 153.002 2.45782C153.002 3.81524 154.103 4.91564 155.462 4.91564Z" fill="url(#paint1_linear_7825_162370)"/>
<path d="M1.54553 22.8965V10.1319H6.07606C6.99453 10.1319 7.81586 10.2907 8.54003 10.6085C9.2701 10.9204 9.84415 11.3824 10.2622 11.9945C10.6802 12.6065 10.8892 13.3598 10.8892 14.2543C10.8892 15.0959 10.6978 15.8168 10.3152 16.4171C9.93834 17.0174 9.41141 17.4764 8.73433 17.7942C8.05724 18.112 7.26537 18.2709 6.35867 18.2709H3.7269V22.8965H1.54553ZM3.70924 16.5495H6.30568C7.05341 16.5495 7.66278 16.3259 8.13379 15.8786C8.61068 15.4313 8.84913 14.8487 8.84913 14.1307C8.84913 13.401 8.60185 12.836 8.10729 12.4359C7.61273 12.0298 6.99159 11.8267 6.24386 11.8267H3.70924V16.5495ZM12.603 22.8965V13.7688H14.6608V15.7462C14.808 15.2931 15.0169 14.9076 15.2878 14.5898C15.5645 14.2661 15.8883 14.0189 16.2593 13.8483C16.6302 13.6776 17.0335 13.5923 17.4692 13.5923C17.5751 13.5923 17.6782 13.5982 17.7783 13.6099C17.8783 13.6217 17.952 13.6423 17.9991 13.6717V15.7285C17.9343 15.6992 17.8489 15.6785 17.7429 15.6667C17.6429 15.655 17.5546 15.6491 17.478 15.6491C17.0364 15.6138 16.645 15.6314 16.3034 15.7021C15.9678 15.7727 15.6823 15.8934 15.4468 16.064C15.2172 16.2288 15.0434 16.4407 14.9257 16.6996C14.808 16.9527 14.7491 17.2498 14.7491 17.5912V22.8965H12.603ZM23.3258 23.0731C22.4544 23.0731 21.6949 22.8877 21.0473 22.517C20.3997 22.1403 19.8963 21.6018 19.5371 20.9015C19.1839 20.2012 19.0072 19.3596 19.0072 18.3768C19.0072 17.4234 19.1779 16.5877 19.5194 15.8698C19.8668 15.1519 20.3644 14.5927 21.012 14.1925C21.6596 13.7924 22.4338 13.5923 23.3346 13.5923C24.206 13.5923 24.9625 13.7835 25.6043 14.1661C26.2461 14.5485 26.7407 15.0959 27.088 15.808C27.4412 16.5201 27.6179 17.3764 27.6179 18.3768C27.6179 19.3008 27.4501 20.1159 27.1145 20.8221C26.7848 21.5223 26.2991 22.0727 25.6573 22.4728C25.0214 22.873 24.2443 23.0731 23.3258 23.0731ZM23.3346 21.44C23.8292 21.44 24.2354 21.3047 24.5534 21.0339C24.8772 20.7632 25.1157 20.3924 25.2687 19.9216C25.4277 19.4509 25.5072 18.9153 25.5072 18.315C25.5072 17.756 25.4365 17.241 25.2952 16.7702C25.1598 16.2994 24.9302 15.9227 24.6064 15.6403C24.2884 15.3519 23.8645 15.2077 23.3346 15.2077C22.8341 15.2077 22.4191 15.3401 22.0894 15.605C21.7655 15.8639 21.5213 16.2288 21.3564 16.6996C21.1974 17.1645 21.1179 17.703 21.1179 18.315C21.1179 18.8683 21.1886 19.3832 21.3299 19.8598C21.4771 20.3306 21.7125 20.7132 22.0364 21.0074C22.3603 21.2959 22.793 21.44 23.3346 21.44ZM29.5242 25.739V13.7688H31.6703L31.6879 15.2077C31.8056 15.0076 31.9558 14.8105 32.1383 14.6163C32.3267 14.4221 32.5417 14.2484 32.783 14.0954C33.0303 13.9425 33.3041 13.8218 33.6044 13.7335C33.9046 13.6393 34.2343 13.5923 34.5935 13.5923C35.2941 13.5923 35.9153 13.76 36.4569 14.0954C36.9985 14.425 37.4224 14.9341 37.7286 15.6226C38.0406 16.3112 38.1967 17.1822 38.1967 18.2356C38.1967 19.3125 38.0377 20.2101 37.7198 20.928C37.4019 21.6459 36.9574 22.1844 36.3863 22.5434C35.8151 22.8965 35.1528 23.0731 34.3992 23.0731C34.0519 23.0731 33.7339 23.0261 33.4454 22.9319C33.1628 22.8376 32.9096 22.7083 32.6859 22.5434C32.4622 22.3786 32.2649 22.1992 32.0942 22.005C31.9293 21.8107 31.791 21.6077 31.6791 21.3959V25.739H29.5242ZM33.9223 21.4665C34.5699 21.4665 35.1057 21.2105 35.5296 20.6985C35.9535 20.1805 36.1655 19.3714 36.1655 18.2709C36.1655 17.3175 35.9652 16.5672 35.5649 16.0199C35.1704 15.4666 34.6229 15.1901 33.9223 15.1901C33.1687 15.1901 32.6035 15.4814 32.2266 16.064C31.8498 16.6407 31.6614 17.3764 31.6614 18.2709C31.6614 18.8476 31.7438 19.3803 31.9087 19.8687C32.0794 20.3513 32.3297 20.7397 32.6594 21.0339C32.995 21.3223 33.416 21.4665 33.9223 21.4665ZM41.7846 18.827C41.7787 19.345 41.8612 19.804 42.0319 20.2041C42.2026 20.6043 42.4558 20.9192 42.7914 21.1487C43.127 21.3723 43.5421 21.4841 44.0366 21.4841C44.5429 21.4841 44.9816 21.3723 45.3525 21.1487C45.7294 20.9192 45.9795 20.572 46.1032 20.107H48.0726C47.9666 20.7426 47.7134 21.2811 47.3131 21.7225C46.9128 22.1639 46.4271 22.4993 45.8559 22.7288C45.2907 22.9583 44.7019 23.0731 44.0896 23.0731C43.2065 23.0731 42.4293 22.8877 41.7581 22.517C41.0929 22.1403 40.5718 21.6048 40.195 20.9103C39.824 20.2159 39.6386 19.3891 39.6386 18.4298C39.6386 17.4941 39.8093 16.6643 40.1508 15.9404C40.4923 15.2106 40.9838 14.6368 41.6256 14.219C42.2732 13.8012 43.0504 13.5923 43.9571 13.5923C44.858 13.5923 45.6146 13.7835 46.2268 14.1661C46.845 14.5485 47.3102 15.0841 47.6222 15.7727C47.9401 16.4553 48.0991 17.2557 48.0991 18.1738V18.827H41.7846ZM41.7846 17.4941H46.0679C46.0679 17.0527 45.9913 16.6554 45.8382 16.3023C45.6852 15.9433 45.4497 15.6608 45.1317 15.4549C44.8197 15.243 44.4252 15.1371 43.9483 15.1371C43.4773 15.1371 43.0799 15.2519 42.7561 15.4814C42.4322 15.7109 42.188 16.0081 42.0231 16.373C41.8582 16.732 41.7787 17.1056 41.7846 17.4941ZM50.1022 22.8965V13.7688H52.1599V15.7462C52.3071 15.2931 52.5161 14.9076 52.7869 14.5898C53.0636 14.2661 53.3875 14.0189 53.7584 13.8483C54.1293 13.6776 54.5327 13.5923 54.9683 13.5923C55.0743 13.5923 55.1774 13.5982 55.2774 13.6099C55.3774 13.6217 55.4511 13.6423 55.4982 13.6717V15.7285C55.4335 15.6992 55.348 15.6785 55.2421 15.6667C55.142 15.655 55.0537 15.6491 54.9771 15.6491C54.5356 15.6138 54.1441 15.6314 53.8025 15.7021C53.467 15.7727 53.1814 15.8934 52.9459 16.064C52.7163 16.2288 52.5425 16.4407 52.4248 16.6996C52.3071 16.9527 52.2482 17.2498 52.2482 17.5912V22.8965H50.1022ZM62.4706 15.2872H60.4305L60.4394 20.5219C60.4394 20.7927 60.4688 20.9927 60.5277 21.1222C60.5924 21.2458 60.6926 21.3281 60.828 21.3694C60.9693 21.4047 61.1576 21.4223 61.3932 21.4223H62.5148V22.7818C62.3971 22.8288 62.2174 22.8701 61.976 22.9054C61.7405 22.9466 61.4226 22.9672 61.0222 22.9672C60.2981 22.9672 59.7358 22.873 59.3354 22.6847C58.9409 22.4905 58.6672 22.2168 58.5141 21.8637C58.3611 21.5106 58.2845 21.0898 58.2845 20.6014V15.2872H56.8008V13.7688H58.3463L58.885 11.0587H60.4305V13.76H62.4706V15.2872ZM65.7919 25.8096C65.209 25.8096 64.7999 25.7626 64.5643 25.6684C64.3347 25.5801 64.2199 25.536 64.2199 25.536V24.1589L65.1384 24.1854C65.5093 24.203 65.8096 24.1825 66.0392 24.1236C66.2747 24.0647 66.4572 23.9823 66.5867 23.8764C66.7163 23.7764 66.8104 23.6674 66.8694 23.5498C66.9341 23.4379 66.9842 23.3408 67.0195 23.2585L67.2579 22.5876L63.6989 13.7688H65.8449L68.2647 20.2218L70.6845 13.7688H72.7864L69.0242 23.232C68.7416 23.9205 68.4354 24.4502 68.1058 24.821C67.7819 25.1976 67.4257 25.4565 67.0372 25.5978C66.6545 25.739 66.2394 25.8096 65.7919 25.8096ZM77.2838 12.0651V10.1319H87.2457V12.0651H83.4128V22.8965H81.258V12.0651H77.2838ZM90.3614 23.0731C89.7785 23.0731 89.2546 22.9672 88.7894 22.7553C88.3302 22.5375 87.9681 22.2285 87.7031 21.8284C87.4441 21.4223 87.3146 20.9309 87.3146 20.3542C87.3146 19.3478 87.6766 18.5887 88.4008 18.0767C89.1309 17.5647 90.2936 17.297 91.8892 17.2734L93.2493 17.2381V16.6201C93.2493 16.1375 93.1051 15.761 92.8165 15.4902C92.5339 15.2136 92.0924 15.0782 91.4918 15.0841C91.0503 15.0901 90.644 15.196 90.2731 15.4019C89.9081 15.6021 89.6666 15.9404 89.5489 16.4171H87.7208C87.7561 15.7932 87.9357 15.2724 88.2595 14.8546C88.5892 14.4309 89.0396 14.116 89.6107 13.9101C90.1819 13.6982 90.8412 13.5923 91.589 13.5923C92.4604 13.5923 93.1698 13.707 93.7173 13.9365C94.2649 14.1661 94.6682 14.4986 94.9273 14.9341C95.1863 15.3637 95.3158 15.8845 95.3158 16.4965V22.8965H93.5054L93.3376 21.2546C93.0079 21.9432 92.5898 22.4199 92.0835 22.6847C91.583 22.9436 91.009 23.0731 90.3614 23.0731ZM91.0591 21.6165C91.324 21.6165 91.5861 21.5695 91.8451 21.4753C92.1041 21.3753 92.3396 21.2429 92.5516 21.0781C92.7635 20.9074 92.9314 20.719 93.055 20.5131C93.1846 20.3072 93.2493 20.0923 93.2493 19.8687V18.4298L92.1277 18.4474C91.5742 18.4534 91.0915 18.5121 90.6793 18.624C90.2672 18.7359 89.9434 18.9153 89.7079 19.1625C89.4783 19.4037 89.3634 19.7274 89.3634 20.1335C89.3634 20.5985 89.5253 20.9633 89.8492 21.2281C90.173 21.487 90.5763 21.6165 91.0591 21.6165ZM106.206 22.8965H103.928L101.526 19.648L99.1323 22.8965H96.8538L100.36 18.1473L97.1452 13.7688H99.4237L101.534 16.6201L103.645 13.7688H105.932L102.691 18.1473L106.206 22.8965ZM112.059 22.8965V10.1319H116.59C117.508 10.1319 118.33 10.2907 119.054 10.6085C119.784 10.9204 120.358 11.3824 120.776 11.9945C121.194 12.6065 121.403 13.3598 121.403 14.2543C121.403 15.0959 121.212 15.8168 120.829 16.4171C120.452 17.0174 119.925 17.4764 119.248 17.7942C118.571 18.112 117.779 18.2709 116.872 18.2709H114.241V22.8965H112.059ZM114.223 16.5495H116.819C117.567 16.5495 118.177 16.3259 118.648 15.8786C119.124 15.4313 119.363 14.8487 119.363 14.1307C119.363 13.401 119.116 12.836 118.621 12.4359C118.126 12.0298 117.505 11.8267 116.758 11.8267H114.223V16.5495ZM125.749 23.029C125.16 23.029 124.689 22.9554 124.336 22.8083C123.982 22.6611 123.717 22.464 123.541 22.2168C123.364 21.9696 123.249 21.6931 123.196 21.387C123.143 21.0752 123.117 20.7574 123.117 20.4336V9.77875H125.219V20.1865C125.219 20.5808 125.298 20.8867 125.457 21.1045C125.622 21.3223 125.887 21.4488 126.252 21.4841L126.711 21.5018V22.8524C126.552 22.8994 126.39 22.9407 126.225 22.976C126.061 23.0113 125.902 23.029 125.749 23.029ZM131.785 23.0731C131.338 23.0731 130.905 23.0084 130.487 22.8789C130.075 22.7436 129.704 22.5494 129.374 22.2963C129.045 22.0374 128.783 21.7196 128.588 21.3429C128.394 20.9662 128.297 20.5279 128.297 20.0276V13.7688H130.452V19.7804C130.452 20.2747 130.608 20.6808 130.92 20.9986C131.238 21.3164 131.715 21.4753 132.351 21.4753C132.928 21.4753 133.39 21.3252 133.737 21.0251C134.084 20.719 134.258 20.2807 134.258 19.7098V13.7688H136.395V22.8965H134.744L134.505 21.1134C134.394 21.6136 134.196 22.0078 133.914 22.2963C133.637 22.5787 133.31 22.7789 132.934 22.8965C132.563 23.0142 132.18 23.0731 131.785 23.0731ZM142.128 23.0731C141.492 23.0731 140.889 22.9731 140.318 22.773C139.752 22.567 139.276 22.2462 138.887 21.8107C138.505 21.3753 138.263 20.8132 138.162 20.1247H140.053C140.136 20.4601 140.279 20.7338 140.485 20.9456C140.697 21.1575 140.947 21.3135 141.235 21.4135C141.524 21.5077 141.819 21.5547 142.119 21.5547C142.666 21.5547 143.108 21.4605 143.443 21.2723C143.786 21.084 143.957 20.7927 143.957 20.3983C143.957 20.1099 143.861 19.8804 143.674 19.7098C143.485 19.5392 143.185 19.4096 142.773 19.3214L141.033 18.9241C140.261 18.7535 139.64 18.471 139.17 18.0767C138.705 17.6823 138.469 17.1262 138.463 16.4083C138.458 15.8669 138.593 15.3843 138.869 14.9605C139.146 14.5368 139.557 14.2043 140.105 13.963C140.653 13.7159 141.331 13.5923 142.137 13.5923C143.202 13.5923 144.056 13.8306 144.698 14.3073C145.339 14.7781 145.669 15.452 145.687 16.3288H143.859C143.794 15.9345 143.609 15.6285 143.303 15.4107C142.996 15.1872 142.599 15.0753 142.11 15.0753C141.604 15.0753 141.189 15.1724 140.866 15.3666C140.541 15.5608 140.38 15.8581 140.38 16.2582C140.38 16.5347 140.503 16.7525 140.75 16.9114C140.998 17.0703 141.368 17.2056 141.863 17.3175L143.505 17.7147C143.977 17.8324 144.362 17.9913 144.663 18.1914C144.963 18.3916 145.199 18.6123 145.37 18.8535C145.539 19.089 145.658 19.3331 145.723 19.5862C145.793 19.8334 145.828 20.0629 145.828 20.2747C145.828 20.8633 145.675 21.3665 145.37 21.7843C145.069 22.1963 144.642 22.5141 144.089 22.7376C143.536 22.9612 142.882 23.0731 142.128 23.0731Z" fill="url(#paint2_linear_7825_162370)"/>
<path d="M107.412 34.069L109.717 27.6866H110.759L113.06 34.069H112.106L111.506 32.3961H108.984L108.371 34.069H107.412ZM109.21 31.5399H111.263L110.243 28.6135L109.21 31.5399ZM113.893 34.069V27.6866H116.106C116.562 27.6866 116.969 27.7646 117.329 27.9206C117.691 28.0766 117.975 28.3061 118.181 28.6091C118.39 28.9121 118.494 29.2844 118.494 29.7258C118.494 30.1495 118.399 30.5115 118.207 30.8116C118.019 31.1088 117.754 31.3368 117.413 31.4957C117.074 31.6517 116.681 31.7297 116.234 31.7297H114.856V34.069H113.893ZM114.851 30.9572H116.207C116.613 30.9572 116.945 30.841 117.201 30.6086C117.457 30.3731 117.585 30.0612 117.585 29.6728C117.585 29.2785 117.452 28.977 117.187 28.768C116.922 28.5561 116.584 28.4502 116.172 28.4502H114.851V30.9572ZM119.242 34.069V27.6866H121.454C121.91 27.6866 122.318 27.7646 122.677 27.9206C123.039 28.0766 123.323 28.3061 123.529 28.6091C123.739 28.9121 123.843 29.2844 123.843 29.7258C123.843 30.1495 123.747 30.5115 123.556 30.8116C123.368 31.1088 123.103 31.3368 122.761 31.4957C122.423 31.6517 122.03 31.7297 121.582 31.7297H120.204V34.069H119.242ZM120.2 30.9572H121.556C121.962 30.9572 122.293 30.841 122.549 30.6086C122.805 30.3731 122.933 30.0612 122.933 29.6728C122.933 29.2785 122.801 28.977 122.536 28.768C122.271 28.5561 121.932 28.4502 121.52 28.4502H120.2V30.9572ZM124.59 34.069V27.6866H128.715L128.71 28.5076H125.54V30.4452H128.37V31.253H125.535V33.2348L128.79 33.2392V34.069H124.59ZM129.281 34.069L131.586 27.6866H132.628L134.928 34.069H133.975L133.374 32.3961H130.853L130.239 34.069H129.281ZM131.078 31.5399H133.131L132.111 28.6135L131.078 31.5399ZM135.766 27.6866H136.724V33.2392H139.675V34.069H135.762L135.766 27.6866ZM142.935 34.1572C142.632 34.1572 142.335 34.119 142.047 34.0425C141.758 33.9659 141.496 33.8527 141.262 33.7026C141.026 33.5497 140.83 33.3599 140.674 33.1332C140.521 32.9066 140.425 32.6418 140.387 32.3388H141.372C141.422 32.5683 141.521 32.761 141.667 32.917C141.818 33.073 142.001 33.1906 142.219 33.2701C142.437 33.3495 142.675 33.3892 142.93 33.3892C143.213 33.3892 143.467 33.351 143.69 33.2745C143.917 33.195 144.096 33.0832 144.228 32.939C144.361 32.7919 144.427 32.6153 144.427 32.4094C144.427 32.224 144.382 32.0666 144.291 31.9371C144.202 31.8076 144.075 31.7003 143.911 31.6149C143.748 31.5266 143.554 31.4575 143.323 31.4075L142.113 31.1338C141.64 31.0338 141.266 30.8484 140.993 30.5777C140.721 30.304 140.584 29.9421 140.581 29.4919C140.579 29.1152 140.677 28.7857 140.877 28.5032C141.081 28.2207 141.357 28.0015 141.707 27.8455C142.058 27.6866 142.457 27.6072 142.904 27.6072C143.425 27.6072 143.863 27.6939 144.216 27.8676C144.572 28.0412 144.841 28.2708 145.023 28.5561C145.205 28.8386 145.299 29.1461 145.302 29.4786H144.335C144.311 29.2079 144.231 28.9931 144.096 28.8342C143.961 28.6753 143.79 28.5621 143.584 28.4944C143.381 28.4237 143.158 28.3884 142.913 28.3884C142.737 28.3884 142.567 28.4105 142.406 28.4546C142.243 28.4988 142.101 28.5635 141.976 28.6488C141.854 28.7342 141.754 28.8401 141.681 28.9666C141.611 29.0902 141.575 29.233 141.575 29.3948C141.575 29.6126 141.648 29.7891 141.796 29.9244C141.943 30.0597 142.214 30.176 142.608 30.2731L143.791 30.5424C144.13 30.613 144.404 30.7174 144.613 30.8557C144.822 30.991 144.982 31.1455 145.094 31.3192C145.205 31.4928 145.283 31.6738 145.324 31.8621C145.365 32.0475 145.386 32.2255 145.386 32.3961C145.386 32.7257 145.287 33.0244 145.089 33.2921C144.892 33.557 144.612 33.7673 144.246 33.9233C143.881 34.0793 143.445 34.1572 142.935 34.1572Z" fill="url(#paint3_linear_7825_162370)"/>
<defs>
<linearGradient id="paint0_linear_7825_162370" x1="137.533" y1="16.3442" x2="150.394" y2="20.7756" gradientUnits="userSpaceOnUse">
<stop stop-color="#1DCDFE"/>
<stop offset="0.2" stop-color="#1DCDF6"/>
<stop offset="0.5" stop-color="#1ECEE2"/>
<stop offset="0.87" stop-color="#1FCFC0"/>
<stop offset="1" stop-color="#20D0B2"/>
</linearGradient>
<linearGradient id="paint1_linear_7825_162370" x1="135.981" y1="20.739" x2="148.824" y2="25.2579" gradientUnits="userSpaceOnUse">
<stop stop-color="#1DCDFE"/>
<stop offset="0.2" stop-color="#1DCDF6"/>
<stop offset="0.5" stop-color="#1ECEE2"/>
<stop offset="0.87" stop-color="#1FCFC0"/>
<stop offset="1" stop-color="#20D0B2"/>
</linearGradient>
<linearGradient id="paint2_linear_7825_162370" x1="3.15643" y1="16.5517" x2="73.3233" y2="17.6389" gradientUnits="userSpaceOnUse">
<stop stop-color="#1ECDFD"/>
<stop offset="1" stop-color="#20CFC2"/>
</linearGradient>
<linearGradient id="paint3_linear_7825_162370" x1="107.919" y1="30.8276" x2="126.536" y2="30.9807" gradientUnits="userSpaceOnUse">
<stop stop-color="#1ECDFD"/>
<stop offset="1" stop-color="#20CFC2"/>
</linearGradient>
</defs>
</svg>
