<svg width="20" height="20" viewBox="0 0 20 20" fill="none" xmlns="http://www.w3.org/2000/svg">
<path d="M10 10C12.3012 10 14.1667 8.13452 14.1667 5.83334C14.1667 3.53215 12.3012 1.66667 10 1.66667C7.69885 1.66667 5.83337 3.53215 5.83337 5.83334C5.83337 8.13452 7.69885 10 10 10Z" fill="white"/>
<path opacity="0.4" d="M9.99995 12.0833C5.82495 12.0833 2.42493 14.8833 2.42493 18.3333C2.42493 18.5667 2.60826 18.75 2.84159 18.75H17.1583C17.3916 18.75 17.575 18.5667 17.575 18.3333C17.575 14.8833 14.1749 12.0833 9.99995 12.0833Z" fill="white"/>
<path d="M18.975 17.2333L18.3417 16.6C18.675 16.1 18.8667 15.5 18.8667 14.8583C18.8667 13.1 17.4417 11.675 15.6833 11.675C13.925 11.675 12.5 13.1 12.5 14.8583C12.5 16.6167 13.925 18.0417 15.6833 18.0417C16.325 18.0417 16.925 17.85 17.425 17.5167L18.0583 18.15C18.1833 18.275 18.35 18.3417 18.5166 18.3417C18.6833 18.3417 18.85 18.275 18.975 18.15C19.2333 17.8917 19.2333 17.4833 18.975 17.2333Z" fill="white"/>
</svg>
