<svg width="20" height="20" viewBox="0 0 20 20" fill="none" xmlns="http://www.w3.org/2000/svg">
<path opacity="0.4" d="M14.5167 1.15001C14.3417 1.03335 14.125 1.00833 13.9333 1.08333C12.7417 1.55833 11.425 1.55833 10.2333 1.08333C10.0417 1.00833 9.825 1.03335 9.65 1.15001C9.475 1.26668 9.375 1.45834 9.375 1.66668V4.16668V6.66668C9.375 7.00834 9.65833 7.29168 10 7.29168C10.3417 7.29168 10.625 7.00834 10.625 6.66668V5.01669C11.1083 5.13336 11.5917 5.2 12.0833 5.2C12.8667 5.2 13.65 5.05002 14.4 4.75002C14.6333 4.65835 14.7917 4.42501 14.7917 4.16668V1.66668C14.7917 1.45834 14.6917 1.26668 14.5167 1.15001Z" fill="white"/>
<path d="M18.3333 17.7083H17.2916V9.16667C17.2916 7.15 16.1833 6.04167 14.1666 6.04167H5.83329C3.81663 6.04167 2.70829 7.15 2.70829 9.16667V17.7083H1.66663C1.32496 17.7083 1.04163 17.9917 1.04163 18.3333C1.04163 18.675 1.32496 18.9583 1.66663 18.9583H3.33329H16.6666H18.3333C18.675 18.9583 18.9583 18.675 18.9583 18.3333C18.9583 17.9917 18.675 17.7083 18.3333 17.7083ZM16.0416 10.625V17.7083H13.95V10.625H16.0416ZM9.36663 17.7083H7.28329V10.625H9.36663V17.7083ZM10.6166 10.625H12.7V17.7083H10.6166V10.625ZM3.95829 10.625H6.03329V17.7083H3.95829V10.625Z" fill="white"/>
</svg>
