<svg width="32" height="32" viewBox="0 0 32 32" fill="none" xmlns="http://www.w3.org/2000/svg">
<path d="M16 29.3333C8.63624 29.3333 2.66671 23.3638 2.66671 16C2.66671 8.63619 8.63624 2.66666 16 2.66666C23.3638 2.66666 29.3334 8.63619 29.3334 16C29.3334 23.3638 23.3638 29.3333 16 29.3333Z" fill="white"/>
<path d="M17.68 21.7067C17.9333 21.7067 18.1866 21.6133 18.3866 21.4133C18.7733 21.0267 18.7733 20.3867 18.3866 20L14.3866 16L18.3866 12C18.7733 11.6133 18.7733 10.9733 18.3866 10.5867C18 10.2 17.36 10.2 16.9733 10.5867L12.2666 15.2933C11.88 15.68 11.88 16.32 12.2666 16.7067L16.9733 21.4133C17.1733 21.6133 17.4266 21.7067 17.68 21.7067Z" fill="#4ED6BE"/>
</svg>
