<svg width="20" height="20" viewBox="0 0 20 20" fill="none" xmlns="http://www.w3.org/2000/svg">
<path opacity="0.4" d="M14.0167 1.66667H5.98339C4.20839 1.66667 2.76672 3.11667 2.76672 4.88334V16.625C2.76672 18.125 3.84172 18.7583 5.15839 18.0333L9.22506 15.775C9.65839 15.5333 10.3584 15.5333 10.7834 15.775L14.8501 18.0333C16.1667 18.7667 17.2417 18.1333 17.2417 16.625V4.88334C17.2334 3.11667 15.7917 1.66667 14.0167 1.66667Z" fill="white"/>
<path d="M10 8.56666C9.15 8.56666 8.3 8.41666 7.49167 8.125C7.16667 8.00833 7 7.65 7.11667 7.325C7.24167 7 7.6 6.83333 7.925 6.95C9.26667 7.43333 10.7417 7.43333 12.0833 6.95C12.4083 6.83333 12.7667 7 12.8833 7.325C13 7.65 12.8333 8.00833 12.5083 8.125C11.7 8.41666 10.85 8.56666 10 8.56666Z" fill="white"/>
</svg>
