<svg width="40" height="40" viewBox="0 0 40 40" fill="none" xmlns="http://www.w3.org/2000/svg">
<rect width="40" height="40" rx="20" fill="white"/>
<path d="M28.4 24.33C28.12 25.08 27.53 25.65 26.76 25.91C25.68 26.27 24.57 26.54 23.45 26.73C23.34 26.75 23.23 26.77 23.12 26.78C22.94 26.81 22.76 26.83 22.58 26.85C22.36 26.88 22.13 26.9 21.9 26.92C21.27 26.97 20.65 27 20.02 27C19.38 27 18.74 26.97 18.11 26.91C17.84 26.89 17.58 26.86 17.32 26.82C17.17 26.8 17.02 26.78 16.88 26.76C16.77 26.74 16.66 26.73 16.55 26.71C15.44 26.53 14.34 26.26 13.27 25.9C12.47 25.63 11.86 25.06 11.59 24.33C11.32 23.61 11.42 22.77 11.85 22.05L12.98 20.17C13.22 19.76 13.44 18.97 13.44 18.49V16.63C13.44 13 16.39 10.05 20.02 10.05C23.64 10.05 26.59 13 26.59 16.63V18.49C26.59 18.97 26.81 19.76 27.06 20.17L28.19 22.05C28.6 22.75 28.68 23.57 28.4 24.33Z" fill="#2C4E6C"/>
<path d="M19.76 18.62C19.34 18.62 19 18.28 19 17.86V14.76C19 14.34 19.34 14 19.76 14C20.18 14 20.52 14.34 20.52 14.76V17.86C20.51 18.28 20.17 18.62 19.76 18.62Z" fill="white"/>
<path d="M22.83 28.01C22.41 29.17 21.3 30 20 30C19.21 30 18.43 29.68 17.88 29.11C17.56 28.81 17.32 28.41 17.18 28C17.31 28.02 17.44 28.03 17.58 28.05C17.81 28.08 18.05 28.11 18.29 28.13C18.86 28.18 19.44 28.21 20.02 28.21C20.59 28.21 21.16 28.18 21.72 28.13C21.93 28.11 22.14 28.1 22.34 28.07C22.5 28.05 22.66 28.03 22.83 28.01Z" fill="#2C4E6C"/>
</svg>
