<svg width="20" height="20" viewBox="0 0 20 20" fill="none" xmlns="http://www.w3.org/2000/svg">
<path opacity="0.4" d="M15.5583 1.66666H13.975C12.1583 1.66666 11.2 2.62499 11.2 4.44166V6.02499C11.2 7.84166 12.1583 8.79999 13.975 8.79999H15.5583C17.375 8.79999 18.3333 7.84166 18.3333 6.02499V4.44166C18.3333 2.62499 17.375 1.66666 15.5583 1.66666Z" fill="white"/>
<path opacity="0.4" d="M6.03329 11.1917H4.44996C2.62496 11.1917 1.66663 12.15 1.66663 13.9667V15.55C1.66663 17.375 2.62496 18.3333 4.44163 18.3333H6.02496C7.84163 18.3333 8.79996 17.375 8.79996 15.5583V13.975C8.80829 12.15 7.84996 11.1917 6.03329 11.1917Z" fill="white"/>
<path d="M5.24163 8.81666C7.21604 8.81666 8.81663 7.21607 8.81663 5.24166C8.81663 3.26724 7.21604 1.66666 5.24163 1.66666C3.26721 1.66666 1.66663 3.26724 1.66663 5.24166C1.66663 7.21607 3.26721 8.81666 5.24163 8.81666Z" fill="white"/>
<path d="M14.7583 18.3333C16.7328 18.3333 18.3334 16.7327 18.3334 14.7583C18.3334 12.7839 16.7328 11.1833 14.7583 11.1833C12.7839 11.1833 11.1833 12.7839 11.1833 14.7583C11.1833 16.7327 12.7839 18.3333 14.7583 18.3333Z" fill="white"/>
</svg>
