<svg width="22" height="22" viewBox="0 0 22 22" fill="none" xmlns="http://www.w3.org/2000/svg">
<path d="M8.52252 3.63997C8.46594 3.64281 8.41001 3.65335 8.35627 3.67125C6.36786 4.30277 4.67053 5.62405 3.57037 7.39668C2.47021 9.16932 2.03963 11.2766 2.35627 13.3388C2.67575 15.4003 3.72129 17.2799 5.30436 18.6386C6.88742 19.9973 8.90384 20.7456 10.99 20.7487C13.0761 20.7489 15.0936 20.0044 16.6794 18.6491C18.2653 17.2938 19.3151 15.4169 19.64 13.3563C19.961 11.295 19.535 9.18685 18.4387 7.41194C17.3425 5.63704 15.6482 4.31216 13.6613 3.67629C13.5033 3.62573 13.3317 3.64001 13.1843 3.71596C13.0368 3.79191 12.9256 3.92329 12.875 4.08125C12.8245 4.23922 12.8387 4.41079 12.9147 4.55824C12.9906 4.7057 13.122 4.81698 13.28 4.86754C14.9844 5.41026 16.4382 6.54524 17.3782 8.067C18.3183 9.58876 18.6825 11.3967 18.405 13.1637C18.1297 14.9309 17.2309 16.5412 15.8713 17.7032C14.5117 18.8652 12.781 19.5021 10.9925 19.4987C9.20372 19.4994 7.47387 18.8593 6.11637 17.6944C4.75887 16.5295 3.86351 14.9169 3.59252 13.1488C3.31818 11.3808 3.68597 9.57303 4.62929 8.05281C5.5726 6.53259 7.02908 5.40045 8.73502 4.86128C8.88117 4.81714 9.00611 4.72099 9.08627 4.59105C9.16642 4.46111 9.19624 4.30629 9.17009 4.15587C9.14394 4.00545 9.06364 3.86983 8.94434 3.77455C8.82504 3.67928 8.67499 3.6322 8.52252 3.63997Z" fill="white" stroke="white" stroke-width="0.5"/>
<path fill-rule="evenodd" clip-rule="evenodd" d="M10.9949 2.00118C10.8296 2.00381 10.6721 2.07184 10.5568 2.19039C10.4415 2.30894 10.3779 2.46832 10.3799 2.63366V7.63366C10.3799 7.79942 10.4458 7.95834 10.563 8.07555C10.6802 8.19276 10.8392 8.25866 11.0049 8.25866C11.1707 8.25866 11.3297 8.19276 11.4469 8.07555C11.5641 7.95834 11.6299 7.79942 11.6299 7.63366V2.63366C11.6309 2.5501 11.6152 2.46718 11.5836 2.38982C11.552 2.31246 11.5052 2.24219 11.446 2.18322C11.3868 2.12425 11.3164 2.07778 11.2389 2.0465C11.1614 2.01522 11.0785 1.99984 10.9949 2.00118Z" fill="white" stroke="white" stroke-width="0.5"/>
</svg>
