<svg width="40" height="40" viewBox="0 0 40 40" fill="none" xmlns="http://www.w3.org/2000/svg">
<rect width="40" height="40" rx="20" fill="white"/>
<path d="M11.5607 8.5H10.4509C9.17171 8.5 8.49998 9.17173 8.49998 10.4451V11.5549C8.49998 12.8283 9.17171 13.5 10.4451 13.5H11.5549C12.8283 13.5 13.5 12.8283 13.5 11.5549V10.4451C13.5058 9.17173 12.8341 8.5 11.5607 8.5Z" fill="#2C4E6C"/>
<path d="M20.5549 8.5H19.4451C18.1717 8.5 17.5 9.17173 17.5 10.4451V11.5549C17.5 12.8283 18.1717 13.5 19.4451 13.5H20.5549C21.8283 13.5 22.5 12.8283 22.5 11.5549V10.4451C22.5 9.17173 21.8283 8.5 20.5549 8.5Z" fill="#2C4E6C"/>
<path d="M29.5549 8.5H28.4451C27.1717 8.5 26.5 9.17173 26.5 10.4451V11.5549C26.5 12.8283 27.1717 13.5 28.4451 13.5H29.5549C30.8283 13.5 31.5 12.8283 31.5 11.5549V10.4451C31.5 9.17173 30.8283 8.5 29.5549 8.5Z" fill="#2C4E6C"/>
<path d="M11.5607 17.5H10.4509C9.17171 17.5 8.49998 18.1717 8.49998 19.4451V20.5549C8.49998 21.8283 9.17171 22.5 10.4451 22.5H11.5549C12.8283 22.5 13.5 21.8283 13.5 20.5549V19.4451C13.5058 18.1717 12.8341 17.5 11.5607 17.5Z" fill="#2C4E6C"/>
<path d="M20.5549 17.5H19.4451C18.1717 17.5 17.5 18.1717 17.5 19.4451V20.5549C17.5 21.8283 18.1717 22.5 19.4451 22.5H20.5549C21.8283 22.5 22.5 21.8283 22.5 20.5549V19.4451C22.5 18.1717 21.8283 17.5 20.5549 17.5Z" fill="#2C4E6C"/>
<path d="M29.5549 17.5H28.4451C27.1717 17.5 26.5 18.1717 26.5 19.4451V20.5549C26.5 21.8283 27.1717 22.5 28.4451 22.5H29.5549C30.8283 22.5 31.5 21.8283 31.5 20.5549V19.4451C31.5 18.1717 30.8283 17.5 29.5549 17.5Z" fill="#2C4E6C"/>
<path d="M11.5607 26.5H10.4509C9.17171 26.5 8.49998 27.1717 8.49998 28.4451V29.5549C8.49998 30.8283 9.17171 31.5 10.4451 31.5H11.5549C12.8283 31.5 13.5 30.8283 13.5 29.5549V28.4451C13.5058 27.1717 12.8341 26.5 11.5607 26.5Z" fill="#2C4E6C"/>
<path d="M20.5549 26.5H19.4451C18.1717 26.5 17.5 27.1717 17.5 28.4451V29.5549C17.5 30.8283 18.1717 31.5 19.4451 31.5H20.5549C21.8283 31.5 22.5 30.8283 22.5 29.5549V28.4451C22.5 27.1717 21.8283 26.5 20.5549 26.5Z" fill="#2C4E6C"/>
<path d="M29.5549 26.5H28.4451C27.1717 26.5 26.5 27.1717 26.5 28.4451V29.5549C26.5 30.8283 27.1717 31.5 28.4451 31.5H29.5549C30.8283 31.5 31.5 30.8283 31.5 29.5549V28.4451C31.5 27.1717 30.8283 26.5 29.5549 26.5Z" fill="#2C4E6C"/>
</svg>
