<svg width="20" height="20" viewBox="0 0 20 20" fill="none" xmlns="http://www.w3.org/2000/svg">
<g clip-path="url(#clip0_7825_162450)">
<path d="M15.919 6.65883C15.919 6.70027 15.9025 6.74001 15.8732 6.76931C15.8439 6.79861 15.8041 6.81508 15.7627 6.81508H13.2483C12.4167 6.81508 11.664 7.15824 11.1233 7.70992V11.1117C11.3879 11.1805 11.6455 11.2737 11.8929 11.39V9.79207C11.8929 9.04472 12.5009 8.43672 13.2483 8.43672H15.7627C15.8041 8.43672 15.8439 8.45318 15.8732 8.48248C15.9025 8.51178 15.919 8.55153 15.919 8.59297V9.84738L19.5447 7.6259L15.919 5.40414V6.65883ZM8.87669 11.1117V7.70992C8.33599 7.15824 7.58333 6.81508 6.75165 6.81508H4.23728C4.19584 6.81508 4.15609 6.79861 4.12679 6.76931C4.09749 6.74001 4.08103 6.70027 4.08103 6.65883V5.4041L0.455322 7.62586L4.08103 9.84734V8.59297C4.08103 8.55153 4.09749 8.51178 4.12679 8.48248C4.15609 8.45318 4.19584 8.43672 4.23728 8.43672H6.75165C7.49903 8.43672 8.10708 9.04472 8.10708 9.79207V11.3901C8.35239 11.2748 8.60966 11.1811 8.87669 11.1117Z" fill="white"/>
<path d="M9.18922 11.0425C9.45223 10.9941 9.7232 10.9685 10 10.9685C10.2769 10.9685 10.5478 10.9941 10.8109 11.0425V4.33394C10.8109 4.2925 10.8273 4.25276 10.8566 4.22345C10.8859 4.19415 10.9257 4.17769 10.9671 4.17769H12.2216L10 0.551987L7.77832 4.17769H9.03297C9.07441 4.17769 9.11415 4.19415 9.14345 4.22345C9.17276 4.25276 9.18922 4.2925 9.18922 4.33394V11.0425Z" fill="#8095A7"/>
<path d="M9.99998 11.2811C7.70896 11.2811 5.84509 13.1449 5.84509 15.4359C5.84509 17.7269 7.70896 19.5908 9.99998 19.5908C12.291 19.5908 14.1549 17.7269 14.1549 15.4359C14.1549 13.1449 12.291 11.2811 9.99998 11.2811ZM9.99998 18.7621C9.68279 18.7621 9.42474 18.5041 9.42474 18.1869C9.42474 17.8698 9.68279 17.6117 9.99998 17.6117C10.3172 17.6117 10.5752 17.8697 10.5752 18.1869C10.5752 18.5041 10.3172 18.7621 9.99998 18.7621ZM10.673 15.9184C10.6146 15.9407 10.587 15.9609 10.5752 15.9718V16.9301C10.5752 17.2473 10.3172 17.5053 9.99998 17.5053C9.68279 17.5053 9.42474 17.2473 9.42474 16.9301V15.9805C9.40498 15.6098 9.61244 15.0915 10.2634 14.8435C10.5974 14.7162 10.8133 14.4139 10.8133 14.0734C10.8133 13.625 10.4485 13.2602 9.99998 13.2602C9.55154 13.2602 9.18669 13.625 9.18669 14.0734C9.18669 14.3906 8.92869 14.6486 8.61154 14.6486C8.29439 14.6486 8.03634 14.3906 8.03634 14.0734C8.03634 12.9907 8.9172 12.1098 9.99998 12.1098C11.0827 12.1098 11.9636 12.9907 11.9636 14.0734C11.9636 14.8954 11.457 15.6196 10.673 15.9184Z" fill="white"/>
<path d="M10 12.4223C9.08958 12.4223 8.34888 13.163 8.34888 14.0734C8.34888 14.2182 8.46673 14.3361 8.61157 14.3361C8.75642 14.3361 8.87423 14.2182 8.87423 14.0734C8.87423 13.4527 9.37927 12.9477 10 12.9477C10.6208 12.9477 11.1258 13.4527 11.1258 14.0734C11.1258 14.5447 10.831 14.9616 10.3747 15.1355C9.72196 15.3842 9.73353 15.908 9.737 15.967C9.73716 15.97 9.73728 15.973 9.73728 15.9761V16.9301C9.73736 16.9998 9.76507 17.0665 9.81432 17.1158C9.86358 17.165 9.93036 17.1927 10 17.1928C10.0697 17.1927 10.1364 17.165 10.1857 17.1158C10.2349 17.0665 10.2626 16.9998 10.2627 16.9301V15.9606C10.2627 15.9563 10.2626 15.952 10.2624 15.9477C10.262 15.939 10.2623 15.9303 10.2633 15.9217C10.2716 15.8507 10.3215 15.7179 10.5618 15.6264C11.2235 15.3742 11.6511 14.7646 11.6511 14.0734C11.6511 13.163 10.9104 12.4223 10 12.4223ZM10 17.9242C9.85517 17.9242 9.73728 18.0421 9.73728 18.1869C9.73728 18.3318 9.85513 18.4496 10 18.4496C10.1449 18.4496 10.2627 18.3318 10.2627 18.1869C10.2627 18.0421 10.1449 17.9242 10 17.9242Z" fill="#8095A7"/>
<path d="M19.9254 7.49269L15.8444 4.99191C15.8207 4.97741 15.7936 4.96948 15.7658 4.96894C15.738 4.9684 15.7106 4.97527 15.6864 4.98884C15.6622 5.00241 15.642 5.0222 15.628 5.04616C15.6139 5.07012 15.6065 5.09738 15.6065 5.12515V6.50261H13.2484C12.4388 6.50261 11.6971 6.79718 11.1234 7.28394V4.49019H12.501C12.5866 4.48863 12.6576 4.42035 12.6576 4.33394C12.6576 4.29883 12.646 4.2664 12.6264 4.24027L10.1333 0.171287C10.1193 0.148484 10.0997 0.129648 10.0764 0.11658C10.0531 0.103512 10.0268 0.0966492 10 0.0966492C9.97329 0.0966492 9.947 0.103512 9.92367 0.11658C9.90034 0.129648 9.88076 0.148484 9.86679 0.171287L7.36609 4.25234C7.35157 4.27602 7.34363 4.30314 7.34309 4.33091C7.34254 4.35868 7.34941 4.3861 7.36298 4.41033C7.37656 4.43456 7.39635 4.45473 7.42031 4.46877C7.44428 4.48281 7.47155 4.4902 7.49933 4.49019H8.87671V7.28394C8.303 6.79715 7.56128 6.50261 6.75167 6.50261H4.39355V5.12515C4.39355 5.09738 4.38614 5.07012 4.3721 5.04616C4.35806 5.0222 4.33789 5.00241 4.31366 4.98884C4.28943 4.97527 4.26203 4.9684 4.23426 4.96894C4.2065 4.96948 4.17938 4.97741 4.1557 4.99191L0.0746415 7.49269C0.0518386 7.50666 0.033001 7.52624 0.019932 7.54956C0.00686298 7.57289 0 7.59918 0 7.62592C0 7.65265 0.00686298 7.67894 0.019932 7.70227C0.033001 7.7256 0.0518386 7.74518 0.0746415 7.75914L4.1557 10.2596C4.17938 10.2741 4.2065 10.2821 4.23427 10.2826C4.26204 10.2832 4.28945 10.2763 4.31368 10.2627C4.33791 10.2491 4.35809 10.2293 4.37213 10.2054C4.38616 10.1814 4.39356 10.1541 4.39355 10.1264V8.74922H6.75167C7.32675 8.74922 7.7946 9.21703 7.7946 9.79207V11.5521C6.44476 12.3216 5.53261 13.7741 5.53261 15.4359C5.53261 17.8993 7.53667 19.9033 9.99999 19.9033C12.4633 19.9033 14.4674 17.8993 14.4674 15.4359C14.4674 13.7741 13.5552 12.3215 12.2054 11.552V9.79203C12.2054 9.21699 12.6732 8.74918 13.2483 8.74918H15.6064V10.1263C15.6064 10.1541 15.6138 10.1814 15.6279 10.2053C15.6419 10.2293 15.6621 10.2491 15.6863 10.2626C15.7106 10.2762 15.738 10.2831 15.7657 10.2825C15.7935 10.282 15.8206 10.2741 15.8443 10.2596L19.9253 7.7591C19.9481 7.74513 19.967 7.72556 19.98 7.70224C19.9931 7.67892 20 7.65265 20 7.62592C20 7.59919 19.9931 7.57291 19.9801 7.54958C19.967 7.52626 19.9482 7.50667 19.9254 7.49269ZM15.919 9.84738V8.59297C15.919 8.55153 15.9025 8.51178 15.8732 8.48248C15.8439 8.45318 15.8042 8.43672 15.7627 8.43672H13.2484C12.501 8.43672 11.8929 9.04472 11.8929 9.79207V11.39C11.6455 11.2737 11.3879 11.1805 11.1234 11.1117V7.70992C11.664 7.15824 12.4167 6.81508 13.2484 6.81508H15.7627C15.8042 6.81508 15.8439 6.79861 15.8732 6.76931C15.9025 6.74001 15.919 6.70027 15.919 6.65883V5.4041L19.5447 7.62586L15.919 9.84738ZM10 19.5908C7.70902 19.5908 5.84515 17.727 5.84515 15.4359C5.84515 13.1449 7.70902 11.2811 10 11.2811C12.291 11.2811 14.1549 13.1449 14.1549 15.4359C14.1549 17.727 12.291 19.5908 10 19.5908ZM6.75167 8.43672H4.2373C4.19586 8.43672 4.15612 8.45318 4.12681 8.48248C4.09751 8.51178 4.08105 8.55153 4.08105 8.59297V9.84738L0.455345 7.6259L4.08105 5.40414V6.65886C4.08105 6.7003 4.09751 6.74005 4.12681 6.76935C4.15612 6.79865 4.19586 6.81511 4.2373 6.81511H6.75167C7.58335 6.81511 8.33601 7.15828 8.87671 7.70996V11.1117C8.61215 11.1806 8.35451 11.2738 8.1071 11.3901V9.79207C8.10714 9.04472 7.4991 8.43672 6.75167 8.43672ZM9.18921 4.33394C9.18921 4.2925 9.17275 4.25276 9.14345 4.22346C9.11415 4.19416 9.0744 4.17769 9.03296 4.17769H7.77831L10 0.55199L12.2216 4.17769H10.9671C10.9257 4.17769 10.8859 4.19416 10.8566 4.22346C10.8273 4.25276 10.8109 4.2925 10.8109 4.33394V11.0425C10.5478 10.9941 10.2769 10.9686 10 10.9686C9.7232 10.9686 9.45226 10.9941 9.18921 11.0425V4.33394Z" fill="#8095A7"/>
<path d="M10 12.1098C8.91728 12.1098 8.03638 12.9907 8.03638 14.0734C8.03638 14.3906 8.29438 14.6486 8.61157 14.6486C8.92876 14.6486 9.18673 14.3906 9.18673 14.0734C9.18673 13.625 9.55157 13.2602 10 13.2602C10.4484 13.2602 10.8133 13.625 10.8133 14.0734C10.8133 14.4139 10.5975 14.7162 10.2634 14.8435C9.61247 15.0915 9.40501 15.6098 9.42478 15.9805V16.9301C9.42478 17.2473 9.68282 17.5053 10 17.5053C10.3172 17.5053 10.5752 17.2473 10.5752 16.9301V15.9718C10.587 15.9609 10.6147 15.9407 10.6731 15.9184C11.457 15.6196 11.9636 14.8954 11.9636 14.0734C11.9636 12.9907 11.0827 12.1098 10 12.1098ZM11.6511 14.0734C11.6511 14.7646 11.2235 15.3742 10.5618 15.6264C10.3215 15.7179 10.2716 15.8507 10.2633 15.9217C10.2623 15.9303 10.262 15.939 10.2624 15.9477C10.2626 15.952 10.2627 15.9563 10.2627 15.9606V16.9301C10.2627 17.075 10.1449 17.1928 10 17.1928C9.85517 17.1928 9.73728 17.075 9.73728 16.9301V15.9761C9.73728 15.973 9.7372 15.97 9.737 15.967C9.73353 15.908 9.72196 15.3842 10.3747 15.1355C10.831 14.9616 11.1258 14.5446 11.1258 14.0734C11.1258 13.4527 10.6208 12.9477 10 12.9477C9.37927 12.9477 8.87423 13.4527 8.87423 14.0734C8.87415 14.143 8.84645 14.2098 8.79721 14.259C8.74797 14.3083 8.68121 14.336 8.61157 14.3361C8.54193 14.336 8.47516 14.3083 8.42591 14.2591C8.37666 14.2098 8.34896 14.143 8.34888 14.0734C8.34888 13.163 9.08954 12.4223 10 12.4223C10.9105 12.4223 11.6511 13.163 11.6511 14.0734ZM10 17.6117C9.68282 17.6117 9.42478 17.8697 9.42478 18.1869C9.42478 18.5041 9.68282 18.7621 10 18.7621C10.3172 18.7621 10.5752 18.5041 10.5752 18.1869C10.5752 17.8697 10.3172 17.6117 10 17.6117ZM10 18.4496C9.85517 18.4496 9.73728 18.3318 9.73728 18.187C9.73728 18.0421 9.85513 17.9243 10 17.9243C10.1449 17.9243 10.2627 18.0421 10.2627 18.187C10.2627 18.3318 10.1449 18.4496 10 18.4496Z" fill="#8095A7"/>
</g>
<defs>
<clipPath id="clip0_7825_162450">
<rect width="20" height="20" fill="white"/>
</clipPath>
</defs>
</svg>
