<svg width="20" height="20" viewBox="0 0 20 20" fill="none" xmlns="http://www.w3.org/2000/svg">
<path d="M19.0625 11.1344V8.86563C19.0625 8.7087 19.0034 8.55753 18.8971 8.44214C18.7907 8.32676 18.6448 8.2556 18.4884 8.24281L17.0197 8.12219C16.7797 8.1025 16.5662 7.94938 16.4866 7.72219C16.4033 7.48433 16.3069 7.25127 16.1978 7.02406C16.0938 6.80719 16.1359 6.54813 16.2916 6.36469L17.245 5.24094C17.3466 5.1213 17.3995 4.96779 17.3932 4.81094C17.3868 4.65409 17.3216 4.50538 17.2106 4.39438L15.6059 2.78969C15.4949 2.67878 15.3463 2.61367 15.1895 2.6073C15.0327 2.60094 14.8793 2.65377 14.7597 2.75531L13.6356 3.70844C13.4522 3.86437 13.1931 3.90656 12.9762 3.80219C12.749 3.69324 12.516 3.59695 12.2781 3.51375C12.0509 3.43406 11.8978 3.22062 11.8781 2.98094L11.7575 1.51187C11.7448 1.35542 11.6737 1.20947 11.5583 1.10305C11.4429 0.996634 11.2917 0.937534 11.1347 0.9375H8.86531C8.70839 0.937527 8.55722 0.996584 8.44183 1.10294C8.32645 1.20929 8.25529 1.35516 8.2425 1.51156L8.12187 2.98031C8.10219 3.22031 7.94906 3.43375 7.72187 3.51344C7.48402 3.59674 7.25095 3.69313 7.02375 3.80219C6.80687 3.90625 6.54781 3.86406 6.36437 3.70844L5.24063 2.755C5.12099 2.65337 4.96748 2.60048 4.81063 2.60685C4.65378 2.61322 4.50507 2.67838 4.39406 2.78937L2.78937 4.39406C2.67838 4.50507 2.61322 4.65378 2.60685 4.81063C2.60048 4.96748 2.65337 5.12099 2.755 5.24063L3.70813 6.36437C3.86406 6.54781 3.90625 6.80687 3.80188 7.02375C3.69344 7.24969 3.59719 7.48312 3.51344 7.72187C3.43375 7.94906 3.22031 8.10219 2.98063 8.12187L1.51156 8.2425C1.35516 8.25529 1.20929 8.32645 1.10294 8.44183C0.996584 8.55722 0.937527 8.70839 0.9375 8.86531V11.1347C0.937527 11.2916 0.996584 11.4428 1.10294 11.5582C1.20929 11.6736 1.35516 11.7447 1.51156 11.7575L2.98031 11.8781C3.22031 11.8978 3.43375 12.0509 3.51344 12.2781C3.59719 12.5172 3.69344 12.75 3.80219 12.9762C3.90625 13.1931 3.86406 13.4522 3.70844 13.6356L2.755 14.7594C2.65337 14.879 2.60048 15.0325 2.60685 15.1894C2.61322 15.3462 2.67838 15.4949 2.78937 15.6059L4.39406 17.2106C4.50505 17.3215 4.6537 17.3866 4.81048 17.393C4.96725 17.3994 5.12069 17.3465 5.24031 17.245L6.36437 16.2919C6.54781 16.1359 6.80687 16.0938 7.02375 16.1978C7.24969 16.3066 7.48312 16.4028 7.72187 16.4866C7.94906 16.5662 8.10219 16.7797 8.12187 17.0194L8.2425 18.4884C8.25529 18.6448 8.32645 18.7907 8.44183 18.8971C8.55722 19.0034 8.70839 19.0625 8.86531 19.0625H11.1347C11.2916 19.0625 11.4428 19.0034 11.5582 18.8971C11.6736 18.7907 11.7447 18.6448 11.7575 18.4884L11.8781 17.0197C11.8978 16.7797 12.0509 16.5662 12.2781 16.4866C12.516 16.4033 12.749 16.3069 12.9762 16.1978C13.1931 16.0938 13.4522 16.1359 13.6356 16.2916L14.7594 17.245C14.879 17.3466 15.0325 17.3995 15.1894 17.3932C15.3462 17.3868 15.4949 17.3216 15.6059 17.2106L17.2106 15.6059C17.3216 15.4949 17.3868 15.3462 17.3932 15.1894C17.3995 15.0325 17.3466 14.879 17.245 14.7594L16.2919 13.6356C16.1359 13.4522 16.0938 13.1931 16.1978 12.9762C16.3066 12.7503 16.4028 12.5169 16.4866 12.2781C16.5662 12.0509 16.7797 11.8978 17.0194 11.8781L18.4884 11.7575C18.6448 11.7447 18.7907 11.6736 18.8971 11.5582C19.0034 11.4428 19.0625 11.2913 19.0625 11.1344Z" fill="white"/>
<path d="M16.4188 16.3969L15.6062 17.2094C15.375 17.4406 15.0062 17.4563 14.7594 17.2438L13.6344 16.2906C13.4531 16.1375 13.1938 16.0938 12.975 16.1969C12.75 16.3063 12.5156 16.4031 12.2781 16.4875C12.05 16.5656 11.8969 16.7781 11.8781 17.0188L11.7562 18.4875C11.7441 18.644 11.6732 18.7902 11.5579 18.8968C11.4427 19.0034 11.2914 19.0626 11.1344 19.0625H8.86563C8.54063 19.0625 8.26875 18.8125 8.24375 18.4875L8.12187 17.0188C8.10313 16.7781 7.95 16.5656 7.72187 16.4875C7.48437 16.4031 7.25 16.3063 7.025 16.1969C6.80625 16.0938 6.54688 16.1375 6.36563 16.2906L5.24063 17.2438C4.99375 17.4563 4.625 17.4406 4.39375 17.2094L2.79063 15.6063C2.55938 15.375 2.54375 15.0063 2.75625 14.7594L3.70937 13.6344C3.8625 13.4531 3.90625 13.1938 3.80312 12.975C3.69375 12.75 3.59687 12.5156 3.5125 12.2781C3.43437 12.05 3.22188 11.8969 2.98125 11.8781L1.5125 11.7563C1.35596 11.7441 1.20978 11.6732 1.10319 11.5579C0.996589 11.4427 0.937419 11.2914 0.9375 11.1344V8.86563C0.9375 8.54063 1.1875 8.26875 1.5125 8.24375L2.98125 8.12188C3.22188 8.10313 3.43437 7.95 3.5125 7.72188C3.59687 7.48438 3.69375 7.25 3.80312 7.025C3.90625 6.80625 3.8625 6.54688 3.70937 6.36563L2.75625 5.24063C2.54375 4.99375 2.55938 4.625 2.79063 4.39375L4.39375 2.79063C4.625 2.55938 4.99375 2.54375 5.24063 2.75625L6.36563 3.70938C6.47813 3.80313 6.61562 3.85625 6.75937 3.85938C7.31562 7.75625 9.3125 14.4031 16.4188 16.3969Z" fill="white"/>
<path d="M10 15C12.7614 15 15 12.7614 15 10C15 7.23858 12.7614 5 10 5C7.23858 5 5 7.23858 5 10C5 12.7614 7.23858 15 10 15Z" fill="#8095A7"/>
<path d="M5.625 10.625C5.625 7.86344 7.86344 5.625 10.625 5.625C11.7985 5.62368 12.9347 6.03695 13.8331 6.79187C12.9159 5.69719 11.54 5 10 5C7.23844 5 5 7.23844 5 10C5 11.54 5.69719 12.9156 6.79187 13.8331C6.03695 12.9347 5.62368 11.7985 5.625 10.625Z" fill="#8095A7"/>
<path d="M10 13.125C11.7259 13.125 13.125 11.7259 13.125 10C13.125 8.27411 11.7259 6.875 10 6.875C8.27411 6.875 6.875 8.27411 6.875 10C6.875 11.7259 8.27411 13.125 10 13.125Z" fill="white"/>
</svg>
